<svg xmlns="http://www.w3.org/2000/svg" viewBox="0 0 217.103 177.402"><title>Colorado Avalanche light logo</title><path d="M217.002 144.74l-4.516 8.212c-10.68 16.427-27.51 23.61-43.52 24.226s-20.53-6.163-24.43-9.03c-3.898-2.88-9.445-16.215-9.445-16.215l.113-3.63a192.065 192.065 0 0 1-9.334 3.506c-14.176 4.907-28.227 7.932-41.483 9.21l-3.294 8.37S22.78 172.875 0 177.402l18.197-30.142c-5.804-4.605-10.062-10.253-12.348-16.875C-4.73 99.85 30.12 59.97 84.005 40.35L108.602 0l11.082 17.245c15.81 2.88 18.478 12.225 18.478 12.225 34.187-1.087 61.46 10.118 68.778 31.274 4.628 13.357.55 28.506-10.018 42.972 0 0 19.665 12.068 20.18 40.507l-.1.516z" fill="#236192"/><path d="M166.432 91.357l-27.79-44.35c1.368-2.466 1.368-7.228 1.368-7.228 30.198 1.86 53.28 13.96 58 33.2 2.218 9.043.1 18.578-5.458 27.756.01.01-9.838-6.634-26.12-9.38z" fill="#FFF"/><path d="M205.035 133.713c-2.263 3.104-4.628 5.984-4.628 5.984-.684.863-1.927 2.252-3.115 3.474l-.975 11.722-1.894-.29c-.515-1.133-2.8-4.718-3.73-5.525-12.92 9.726-25.952 10.723-25.952 10.723-14.734 2.745-24.326-3.08-24.326-3.08 1.726 4.38 6.5 9.994 6.5 9.994 6.99 8.494 19.07 8.023 19.07 8.023 33.358-.65 46.4-25.985 46.4-25.985l-2.218-.112c-.145-5.066-4.504-13.706-5.13-14.927z" fill="#111"/><path d="M176.607 163.89c-6.566 1.926-24.024 5.927-32.148-3.195 0 0 9.916 8.225 33.917.27l-1.77 2.924z" fill="#A2AAAD"/><path d="M182.03 165.827c-24.024 7.967-33.94-.27-33.94-.27 10.117 11.363 34.713 2.377 34.713 2.377 3.743-1.154 7.54-3.306 9.704-4.64l1.244-3.26c-3.16 2.835-11.72 5.793-11.72 5.793z" fill="#A2AAAD"/><path d="M71.445 55.018c-20.394 13.077-35.14 29.56-37.795 56.25 0 0 1.277-1.187 2.185-1.825.09 7.373 4.404 24.82 25.346 25.65 20.944.828 30.39-5.548 37.37-6.78 6.982-1.233 20.944-2.88 32.44-1.233s32.294 6.253 39.756 25.705c-4.65 1.59-14.298 3.037-19.643 2.42-5.334-.616-11.91-3.08-12.73-9.244-.414 6.982 5.133 10.467 11.296 11.083 6.162.616 13.333.067 22.992-2.33 2.062-2.814 2.062-6.892 2.163-8.853 2.15 1.524 3.8 4.404 4.202 5.838 1.85-2.88-.482-9.244-1.782-11.91 2.8 1.848 6.387 7.63 6.645 9.053l1.49-1.86c-.202-3.484-6.275-12.314-7.552-13.96l-5.31 3.327c-6.444-9.088-16.092-14.42-25.325-17.088-9.233-2.668-20.416-4.07-33-3.262 7.127-3.306 23.554-4.74 33.2-2.488 9.65 2.263 18.333 5.793 27.342 16.55l4.796-3.283c5.02 4.38 15.05 18.79 16.775 28.08l.885-.1s.426-18.254-.123-24.832c1.502 1.233 3.45 3.205 3.91 4.202 1.704-2.15.472-7.9-.077-10.22 3.014 3.15 9.995 13.627 11.43 24.742 1.153-3.8.75-7.912.615-9.413-.134-1.502-.952-5.334-3.418-11.63-2.465-6.298-5.748-13.548-13.962-20.395-8.213-6.846-17.783-12.998-35.454-13.962-15.06-.818-37.772 7.664-43.8 10.13-6.018 2.465-22.31 9.58-33.393 11.228-11.082 1.647-16.763 2.308-20.427-1.58l-1.087 1.692c-4.628-1.48-9.973-9.144-10.656-14.208-.66-5.042-1.21-10.387 4.135-21.738C60.217 67.41 69.25 57.696 71.445 55.018z" fill="#FFF"/><path d="M48.99 80.913c-4.1 7.16-9.85 22.904-4.516 33.582s21.492 12.046 31.756 9.995c10.264-2.05 22.58-6.712 27.79-8.897 5.198-2.185 15.563-6.98 26.757-8.83 11.194-1.85 19.71-1.535 28.64 2.667 8.932 4.213 14.288 7.06 21.773 14.87l3.037-1.58 6.208 6.543 1.333-9.894 3.765-5.76c-1.4-3.665-8.617-14.254-23.44-16.55 4.582 2.005 13.927 5.69 19.933 16.426l-2.667 4.66-.337 4.83-4.325-4.66-2.286 1.433c-3.373-4.293-11.037-10.86-21.985-14.008-10.948-3.15-24.372-3.978-36.955-.55-10.544 2.88-16.976 5.75-19.98 7.116-3.013 1.367-8.347 3.967-15.462 6.028-7.115 2.05-14.23 3.552-22.86 2.33-8.627-1.232-16.146-5.333-18.208-14.913s-.73-14.06 2.028-24.84z" fill="#236192"/><path d="M90.54 144.537l-2.466 6.566c9.648.415 31.722-3.9 45.068-8.516-5.446-3.182-19.408-6.062-42.603 1.95z" fill="#FFF"/><path d="M55.5 92.533L108.703 5.85 162.7 90.952c-3.383-.415-9.277 0-12.146.482-2.88.482-9.312 1.85-11.082 2.33-1.782.483-10.948 3.082-14.03 4.102-3.08 1.02-11.843 4.1-14.577 5.132-2.745 1.02-9.592 3.898-12.19 4.784s-7.598 2.6-12.663 3.63c-5.065 1.032-9.85 1.984-14.847 1.503-4.998-.482-7.575-1.94-9.782-3.967-1.647-1.502-4.505-5.166-5.334-9.995-.696-3.968-.606-5.514-.55-6.422z" fill="#A2AAAD"/><path d="M108.76 11.553l50.143 79.233c-3.014.022-6.387.314-8.348.65-2.88.482-9.312 1.85-11.082 2.33-1.782.483-10.948 3.082-14.03 4.102-3.08 1.02-11.843 4.1-14.577 5.132-2.745 1.02-9.592 3.9-12.19 4.785s-7.598 2.6-12.663 3.63c-5.065 1.032-9.85 1.984-14.847 1.503-4.998-.482-7.575-1.94-9.782-3.967-1.647-1.5-4.505-5.165-5.334-9.994-.067-.38-.134-.74-.18-1.076l52.89-86.327zm-35.69 98.685c13.02 1.647 41.964-11.833 41.964-11.833 26.77-10.33 35.644-9.334 35.644-9.334-9.838-3.73-34.848 6.5-34.848 6.5l-6.734-21.615-10.88 28.92C79.31 109.79 73.07 110.24 73.07 110.24z" fill="#6F263D"/><path d="M102.035 101.128l10.735-4.426-4.112-13.054-6.623 17.48z" fill="#236192"/><path d="M25.84 134.923c-5.436-4.773-9.178-10.51-10.792-17.066C9.12 93.677 34.12 66.077 73.08 50.85c0 0-30.242 13.693-43.117 43.52-6.04 14.008-3.014 28.743.134 33.807l-4.258 6.746z" fill="#FFF"/><path d="M74.627 51.018l.92-1.434c-7.184 3.08-16.943 9.95-20.126 12.516-3.18 2.566-9.344 7.8-13.647 12.93-4.303 5.133-8.314 11.51-10.88 17.156-2.566 5.647-4.213 11.082-4.617 20.528-.403 9.446 5.547 18.578 5.547 18.578L5.85 173.582s7.798-1.234 9.96-1.536c2.152-.303 10.68-1.333 14.265-1.748 3.597-.415 15.497-1.535 20.125-1.85 4.617-.302 17.86-1.433 28.742-1.848l9.547-25.145c4.212-1.03 7.08-2.566 14.162-4s14.264-1.95 25.458-.1c11.194 1.848 21.862 8.313 24.226 10.465-2.667-4.617-8.314-8.93-17.346-11.91s-18.892-2.982-24.226-2.77c-5.334.203-13.962 2.152-18.68 3.486-4.716 1.333-9.344 3.485-15.093 4.717-5.747 1.233-11.294 2.15-16.94 1.647-5.648-.504-14.064-1.132-21.762-8.628s-9.547-16.427-8.73-26.792c.82-10.354 8.114-24.63 16.73-34.378s22.277-19.194 28.34-22.174z" fill="#A2AAAD"/><path d="M85.127 142.274l-8.09 21.357c-37.885 2.253-64.924 5.873-64.924 5.873l21.75-35.532c1.86 2.668 7.092 7.598 13.143 9.75 6.05 2.15 9.962 2.667 15.598 2.364 5.66-.314 12.707-1.132 22.523-3.81z" fill="#6F263D"/><path d="M136.402 42.636c5.524-25.66-27.834-25.93-27.834-25.93l-1.513 7.307-5.132 1.58-3.16 11.452-4.135 3.362-6.05 9.872c-.01-.013 38.087-28.43 47.824-7.644z" fill="#FFF"/><path d="M103.705 33.47l.527-2.107s19.61-6.454 27.9 1.445c0 .012-8.683-6.7-28.427.662z" fill="#236192"/><path d="M97.33 40.305s27.833-17.928 38.355-.952c0 0-5.793-15.262-40.406 4.08l2.05-3.128z" fill="#A2AAAD"/><path d="M205.853 103.167c0-2.14 1.737-3.71 3.787-3.71 2.028 0 3.765 1.58 3.765 3.71 0 2.163-1.737 3.73-3.765 3.73-2.062.002-3.787-1.578-3.787-3.73zm3.776 3.115c1.68 0 3.013-1.322 3.013-3.115 0-1.76-1.333-3.093-3.014-3.093-1.704 0-3.038 1.333-3.038 3.093 0 1.793 1.334 3.115 3.037 3.115zm-.786-.963h-.65v-4.293h1.636c1.02 0 1.513.37 1.513 1.22 0 .774-.482 1.1-1.11 1.178l1.222 1.894h-.728l-1.132-1.86h-.75v1.86zm.774-2.41c.55 0 1.042-.046 1.042-.696 0-.527-.482-.627-.93-.627h-.885v1.333h.773v-.01z" fill="#FFF"/></svg>