<svg xmlns="http://www.w3.org/2000/svg" viewBox="0 0 238.374 238.374"><title>Edmonton Oilers light logo</title><g fill="#FFF"><path d="M216.92 210.782c0-3.397-2.756-6.123-6.123-6.123-3.397 0-6.123 2.74-6.123 6.12s2.74 6.14 6.123 6.14c3.367.014 6.123-2.74 6.123-6.14m-10.95 0c0-2.666 2.16-4.81 4.812-4.81s4.812 2.16 4.812 4.81-2.16 4.813-4.812 4.813-4.812-2.145-4.812-4.812"/><path d="M213.3 214.298l-1.386-2.965c.805-.298 1.386-1.043 1.386-1.952 0-1.145-.94-2.084-2.086-2.084h-2.95v7.002h1.31v-2.846h.94l1.326 2.847h1.46v-.002zm-2.07-4.172h-1.64v-1.535h1.64c.416 0 .76.33.76.777 0 .433-.344.76-.76.76"/></g><path d="M119.187 238.374c65.836 0 119.187-53.35 119.187-119.172C238.374 53.366 185.024 0 119.187 0 53.367 0 0 53.366 0 119.202c0 65.82 53.366 119.172 119.187 119.172" fill="#FFF"/><path d="M125.817 5.72c13.602 21.335 19.74 29.187 19.74 41.135 0 14.332-12.053 25.938-26.385 25.938S92.787 61.188 92.787 46.855c0-11.948 6.138-19.8 19.74-41.134C52.86 9.15 5.512 58.64 5.512 119.204c0 62.782 50.893 113.674 113.674 113.674S232.86 181.983 232.86 119.202c0-60.562-47.346-110.054-107.043-113.48" fill="#00205B"/><path d="M119.187 222.522c57.06 0 103.335-46.244 103.335-103.32 0-47.883-32.568-88.154-76.74-99.88 2.338 2.92 10.145 13.678 10.145 27.533 0 20.023-16.463 36.307-36.724 36.307s-36.74-16.298-36.74-36.307c0-13.855 7.806-24.597 10.145-27.532-44.188 11.725-76.74 51.995-76.74 99.88 0 57.06 46.258 103.32 103.32 103.32" fill="#FFF"/><path d="M140.685 131.582h-7.404v11.844c0 2.37-1.935 4.29-4.304 4.29-2.37 0-4.29-1.92-4.29-4.29v-15.092h8.595v-11.19h-8.595v-8.715c0-2.37 1.922-4.293 4.29-4.293 2.37 0 4.307 1.922 4.307 4.29v5.424h7.405V88.795h-31.33v15.345c3.023 0 5.496 2.456 5.496 5.48v34.953c0 1.743-1.414 3.144-3.143 3.144v63.318c0 4.53-2.37 6.585-3.486 7.315 3.577.448 7.242.67 10.966.67 4.544 0 9-.327 13.35-.982 0 0 8.148-1.61 8.148-8.805v-77.65h-.003z" fill="#00205B"/><path d="M109.354 131.582h-7.42v13.006c0 1.728-1.4 3.13-3.113 3.13-1.74 0-3.142-1.4-3.142-3.13v-37.305c0-1.728 1.415-3.144 3.144-3.144V88.792H82.7v15.345c1.73 0 3.145 1.414 3.145 3.143v37.29c0 1.745-1.415 3.146-3.144 3.146v55.154c0 4.618-2.516 6.123-3.723 6.57 7.107 3.62 14.824 6.317 22.958 7.91 0 0 7.42 1.118 7.42-6.33v-79.44.002z" fill="#00205B"/><path d="M80.347 202.87v-55.153c-1.743 0-3.144-1.4-3.144-3.144v-37.29c0-1.73 1.4-3.145 3.144-3.145V88.794h-16.12v15.345c1.743 0 3.144 1.413 3.144 3.142v37.29c0 1.744-1.4 3.145-3.142 3.145v37.56c0 7.85-4.023 9.087-6.123 9.206 4.976 4.842 10.563 9.103 16.67 12.664-.014 0 5.573 2.13 5.572-4.277m124.447-89.002V96.973c0-4.5-3.665-8.18-8.164-8.18h-9.655c-4.5 0-8.18 3.68-8.18 8.18v22.57c0 1.193.73 2.832 1.625 3.636l12.917 11.544c.894.805 1.624 2.443 1.624 3.635v4.99c0 2.414-1.965 4.365-4.38 4.365-2.426 0-4.38-1.952-4.38-4.365v-11.77h-7.417v64.317c16.03-14.883 25.998-35.71 25.998-58.774v-3.337c0-1.192-.714-2.83-1.61-3.635l-12.915-11.544c-.91-.805-1.624-2.443-1.624-3.635V107.3c0-1.743 1.43-3.158 3.174-3.158s3.173 1.414 3.173 3.157v6.555h9.818v.016z" fill="#00205B"/><path d="M61.873 185.29V96.974c0-4.5-3.68-8.18-8.18-8.18H41.746c-4.5 0-8.18 3.68-8.18 8.18v40.15c0 20.114 7.584 38.513 20.144 52.756 2.457 3.203 8.163 4.11 8.163-4.59m111.425-40.716v-18.28c0-3.144-3.5-4.574-3.5-4.574s3.5-1.445 3.5-4.574V96.973c0-4.5-3.665-8.18-8.18-8.18h-22.063l-.015 15.346c1.743 0 3.158 1.413 3.158 3.142v37.29c0 1.744-1.415 3.145-3.158 3.145v61.515c0 3.188-1.28 5.587-3.01 7.345 5.796-1.4 11.368-3.322 16.628-5.78 0 0 3.784-1.834 3.784-8.717v-54.363c-2.443 0-4.41-1.967-4.41-4.41V129.66c0-1.862 1.52-3.382 3.382-3.382s3.382 1.52 3.382 3.382v73.12c0 2.087-.283 3.815-.715 5.26 4.38-2.414 8.51-5.23 12.353-8.343 0 0 2.04-1.684 2.04-9.67v-42.31c-1.76 0-3.174-1.4-3.174-3.143" fill="#00205B"/><path d="M47.72 104.14c-2.385 0-4.322 1.92-4.322 4.305v34.966c0 2.386 1.922 4.308 4.32 4.308 2.4 0 4.322-1.922 4.322-4.306v-34.965c0-2.384-1.937-4.306-4.32-4.306m112.02 13.007c2.07 0 3.725-1.67 3.725-3.725v-5.556c0-2.07-1.654-3.725-3.725-3.725-2.056 0-3.71 1.654-3.71 3.725v5.557c0 2.057 1.654 3.726 3.71 3.725" fill="#FFF"/><path d="M138.406 47.228c0-13.468-11.68-20.664-19.22-39.45-7.538 18.8-19.218 25.982-19.218 39.45 0 9.192 7.613 18.16 19.22 18.16 11.62 0 19.218-8.968 19.218-18.16" fill="#CF4520"/></svg>