<svg xmlns="http://www.w3.org/2000/svg" viewBox="0 0 217.141 242.786"><title>Florida Panthers light logo</title><path d="M215.49 24.367C184.87 8.427 147.894 0 108.566 0 69.233 0 32.263 8.426 1.65 24.367L0 25.224v46.638c0 12.415 1.77 45.128 18.186 80.698 18.417 39.907 45.025 66.67 88.968 89.49l1.414.736 1.414-.732c43.946-22.827 70.554-49.59 88.97-89.49 16.415-35.568 18.19-68.284 18.19-80.7V25.228l-1.653-.86zm-1.418 47.498c0 12.213-1.745 44.4-17.904 79.413-19.838 42.98-49.028 68.02-87.6 88.058-38.895-20.2-67.89-45.35-87.602-88.058-16.16-35.017-17.904-67.2-17.904-79.413v-44.78C35.894 9.988 73.31 3.062 108.567 3.062c35.59 0 72.888 7.04 105.505 24.02v44.783z" fill="#FFF"/><path d="M103.8 93.375zm-19.493 4.678l.665 1.364-.665-1.364zm21.572-4.877s-.448.003-1.335.103c.884-.1 1.33-.104 1.334-.104z"/><path d="M151.57 114.278c4.71-2.652 11.044-8.542 11.044-8.542 3.387-10.015 6.313-23.44 6.313-23.44 0-1.324-1.602-3.48-1.602-3.48-1.602-.828-5.3-1.38-5.3-1.38-5.47.883-12.59 6.24-18.262 10.69 2.947 0 8.1-.95 8.1-.95-1.032 2.65-4.713 9.574-4.713 9.574 2.357.146 6.923-.884 6.923-.884-1.768 5.45-5.155 12.08-5.155 12.08l2.652 6.332zM15.98 79.182c1.71 33.653 15.647 94.43 73.127 134.126 7.69-4.118 12.82-11.044 15.865-16.44 6.06 7.326 6.688 17.55 6.688 17.556 6.48-30.34-21.943-53.752-21.943-53.752s20.506 9.972 34.646 26.17c0 0 .41-2.73-.44-7.18-.993-5.19-2.54-8.836-2.54-8.836s14.777 12.005 22.75 29.872l.54-.48c20.27-20.973 20.85-52.402 20.85-52.402-4.42-18.335-12.18-24.7-12.18-24.7 1.546 8.388 2.503 17.592 2.503 17.592-4.933 10.9-13.77 18.19-13.77 18.19-7.95.883-14.255.088-25.293-3.646-9.575-3.24-16.68-8.283-16.68-8.283s-3.644-.223-7.842.22c-3.55.375-7.842 1.325-7.842 1.325 4.75-8.396 7.568-16.924 8.078-20.8-3.23-3.42-6.727-6.675-10.303-9.248-7.866.367-14.123.82-14.123.82l2.652-10.75s-1.808 1.507-3.83 3.53c-2.172 2.172-4.562 4.867-4.562 4.867-4.714 1.914-11.34 2.947-11.34 2.947-3.386-.883-6.627-3.09-6.627-3.09 7.952-11.784 20.914-16.495 20.914-16.495-2.357-2.798-2.208-5.006-2.208-5.006a131.644 131.644 0 0 1 8.988-5.457c-.652 1.728-.742 2.947-.742 2.947s4.536-3.658 7.297-5.314c3.092-1.857 6.105-3.443 6.105-3.443 2-6.446 5.43-11.67 6.313-12.415 0 0 1.81-.288 2.746-.18.175 2.11 2.582 5.47 3.562 6.758-5.002 1.632-9.336 4.89-9.336 4.89s10.99-2.933 20.718-3.258c13.18-.44 21.304 2.53 21.304 2.53-1.98 2.856-4.66 5.87-4.66 5.87 21.803-7.39 24.078-13.042 35.897-15.58 4.308.698 8.212 2.098 8.212 2.098 2.798 2.947 3.463 5.966 3.463 5.966-1.62 12.59-6.7 26.737-6.7 26.737-3.977 4.86-10.827 9.276-10.827 9.276 6.85-.884 17.01-3.983 17.01-3.983 6.317 4.612 14.613 14.633 18.053 18.947 7.165-19.87 9.983-38.52 10.695-52.49-2.877-1.45-38.662-18.918-92.587-18.918-53.935-.008-89.72 17.46-92.597 18.91zm43.25 80.598c-5.3-4.198-7.067-10.31-7.067-10.31.15-4.27 2.208-6.915 2.208-6.915 9.572 6.774 24.3 12.812 24.3 12.812-11.486 1.1-19.44 4.413-19.44 4.413zm-2.1-33.302c.777-.61 1.833-1.447 2.528-1.97 0 0 4.178-.596 8.737-.904 3.536-.278 6.81-.13 6.81-.13l2.92 3.424c-1.54.172-3.953.556-6.562 1.407 0 0 5.804 1.606 9.793 4.334-.06.53-.132 1.058-.222 1.578-1.275-.126-4.897-.397-8.598.146 0 0 4.036 1.89 7.38 4.56a41.82 41.82 0 0 1-.62 1.7 33.724 33.724 0 0 0-7.617-.68s3.075 1.913 5.882 4.515c-.715 1.386-1.245 2.22-1.245 2.22-8.538-2.55-19.166-7.41-21.874-8.674l-.142-8.416c.906-1.145 1.416-1.844 2.83-3.112zm-12.393-3.324a40.63 40.63 0 0 0 2.195 3.158c.927 1.205 1.94 2.274 3.092 3.35l3.066 8.628c-2.185 2.082-5.055 6.62-5.055 6.62-3.536-6.038-6.333-13.844-6.333-13.844l3.035-7.912zm63.83 101.844zm3.606-129.356c-.735-.315-1.496-.622-2.225-.914-2.185-.87-4.07-1.553-4.07-1.553s-.45.003-1.333.103c-.222.026-.47.056-.745.096a37.33 37.33 0 0 0-1.98.338c-3.46.68-9.104 2.218-16.848 5.704l-.665-1.367-.887-1.822-8.873 12.213c3.016.564 6.138.75 9.005.736 6.31-.03 11.392-1.016 11.392-1.016 3.3-2.784 6.23-5.804 8.234-7.995a96.05 96.05 0 0 0 1.675-1.88c.59-.68.96-1.122 1.063-1.242 2.062-.59 3.68-.884 6.257-1.4zm-19.437 9.36c-5.006 2.43-9.28.44-9.28.44l1.18-1.993c.717.774 2.76 1.578 4.27.962 1.493-.61 2.072-2.168 2.268-2.91a49.627 49.627 0 0 1 5.39-.7c0 .002-.75 2.703-3.828 4.2zM3.062 27.085v44.78c0 12.213 1.745 44.4 17.904 79.413 19.712 42.708 48.707 67.86 87.6 88.058 38.574-20.033 67.767-45.078 87.602-88.058 16.16-35.017 17.904-67.2 17.904-79.413v-44.78c-32.62-16.98-69.918-24.02-105.505-24.02C73.31 3.063 35.89 9.99 3.062 27.086zm205.286 44.78c0 11.832-1.692 43.03-17.378 77.013-18.265 39.573-45.98 65.088-82.403 84.005-36.28-18.84-64.075-44.294-82.403-84.005-15.686-33.984-17.377-65.18-17.377-77.013V30.558C37.62 15.544 75.37 8.79 108.567 8.79c33.08 0 70.892 6.727 99.78 21.768v41.307z" fill="#002654"/><path d="M103.174 100.165c-2.003 2.195-4.93 5.214-8.234 7.995 0 0-5.082.987-11.392 1.016 6.31-.03 11.392-1.016 11.392-1.016 3.305-2.784 6.23-5.804 8.234-7.995z" fill="#BF910C"/><path d="M84.307 98.053l.665 1.364" fill="none"/><path d="M8.787 30.558v41.307c0 11.832 1.692 43.03 17.378 77.013 18.328 39.712 46.12 65.164 82.403 84.005 36.424-18.917 64.138-44.433 82.403-84.005 15.684-33.984 17.38-65.18 17.38-77.013V30.558c-28.89-15.04-66.7-21.768-99.782-21.768-33.194 0-70.95 6.754-99.78 21.768zm181.677 101.115c-3.443-4.314-11.736-14.335-18.053-18.947 0 0-10.16 3.1-17.01 3.983 0 0 6.85-4.417 10.827-9.278 0 0 5.082-14.143 6.7-26.737 0 0-.66-3.02-3.462-5.966 0 0-3.903-1.4-8.21-2.1-11.82 2.54-14.095 8.19-35.9 15.58 0 0 2.683-3.013 4.662-5.87 0 0-8.124-2.973-21.304-2.53-9.73.325-20.718 3.26-20.718 3.26s4.334-3.255 9.336-4.89c-.98-1.29-3.386-4.65-3.56-6.758-.938-.113-2.746.18-2.746.18-.884.74-4.314 5.968-6.313 12.414 0 0-3.012 1.586-6.104 3.443-2.76 1.654-7.297 5.313-7.297 5.313s.088-1.218.74-2.947a129.683 129.683 0 0 0-8.988 5.456s-.15 2.208 2.208 5.006c0 0-12.96 4.714-20.914 16.494 0 0 3.24 2.208 6.628 3.092 0 0 6.628-1.03 11.34-2.947 0 0 2.393-2.695 4.56-4.867 2.024-2.023 3.83-3.53 3.83-3.53l-2.65 10.75s6.256-.453 14.122-.82c3.576 2.572 7.072 5.827 10.303 9.247-.514 3.88-3.332 12.408-8.08 20.8 0 0 4.292-.95 7.844-1.323 4.198-.44 7.843-.222 7.843-.222s7.105 5.042 16.68 8.283c11.037 3.734 17.34 4.53 25.293 3.645 0 0 8.836-7.29 13.77-18.19 0 0-.958-9.203-2.504-17.592 0 0 7.76 6.363 12.18 24.7 0 0-.58 31.433-20.85 52.403-.18.163-.362.322-.54.48a170.04 170.04 0 0 1-20.925 15.826 182.495 182.495 0 0 1-14.632 8.472s2.65-5.565 3.092-10.574c0-.007-.626-10.23-6.688-17.557-3.046 5.396-8.174 12.322-15.865 16.44C31.63 173.603 17.692 112.826 15.984 79.173c2.877-1.45 38.666-18.917 92.587-18.917 53.925 0 89.71 17.467 92.588 18.917-.712 13.98-3.53 32.627-10.694 52.5zM147.15 96.748s3.68-6.923 4.714-9.575c0 0-5.155.95-8.1.95 5.67-4.45 12.795-9.806 18.26-10.69 0 0 3.702.553 5.3 1.38 0 0 1.603 2.156 1.603 3.48 0 0-2.927 13.426-6.313 23.44 0 0-6.333 5.89-11.044 8.543l-2.652-6.333s3.387-6.635 5.155-12.08c0 0-4.566 1.03-6.923.885zm-41.235.295c.073 1.324 0 2.357 0 2.357-2.208 3.827-6.406 8.396-9.094 10.9-5.63 1.323-11.116 1.4-15.794 1.178l-6.48-3.03 8.874-12.212s12.183-4.867 22.46-3.052c0 0 1.884.682 4.07 1.553.727.29 1.49.6 2.224.914-2.577.51-4.196.804-6.26 1.393-.105.12-.476.566-1.065 1.242.59-.68.96-1.123 1.065-1.242zm11.42 9.1c.44-1.803.14-7.494.14-7.494s3.245 1.078 8.25 5.054c0 0-.648 3.685-1.654 7.4l-17.403 7.978c-.003 0 5.8-6.26 10.667-12.938zm84.014-71.338V71.67c-27.834-12.663-62.305-18.404-92.783-18.404-30.578 0-65.002 5.757-92.782 18.398v-36.86S52.308 15.79 108.567 15.79s92.782 19.017 92.782 19.017z" fill="#BF910C"/><path d="M88.905 104.412c-1.51.616-3.552-.19-4.27-.963l-1.18 1.992s4.27 1.99 9.28-.44c3.082-1.496 3.83-4.198 3.83-4.198a48.8 48.8 0 0 0-5.39.7c-.197.74-.777 2.3-2.27 2.908zm25.22-77.013a235.486 235.486 0 0 0-5.382-.067v4.75c1.794 0 3.59.024 5.383.067V27.4zm37.7 18.32c1.77.332 3.54.686 5.304 1.06V32.425a231.37 231.37 0 0 0-5.305-1.06v14.356zM15.785 71.664c27.78-12.64 62.2-18.398 92.782-18.398 30.478 0 64.95 5.74 92.782 18.404V34.804s-36.524-19.017-92.783-19.017-92.782 19.017-92.782 19.017v36.858zm157.45-35.927c.742-1.172 1.483-2.34 2.22-3.506 3.44 1.026 6.864 2.13 10.264 3.317l2.194 4.936v19.914a233.561 233.561 0 0 0-4.72-1.642v-9.608c-1.726-.58-3.454-1.14-5.186-1.675v9.608a221.467 221.467 0 0 0-4.774-1.424v-19.92zm-26.28-10.095c4.27.713 8.528 1.54 12.766 2.487.753 1.553 1.5 3.112 2.252 4.675V48.56l-2.25 3.642a234.505 234.505 0 0 0-12.767-2.486V25.64zm-16.375-2.127c1.64.156 3.274.328 4.91.516V48.1a243.68 243.68 0 0 0-4.91-.515V23.513zm-26.77-.987c4.317-.086 8.638-.056 12.955.096.765 1.41 1.526 2.827 2.29 4.244v6.15c-.764 1.355-1.53 2.71-2.293 4.07-.54-.02-1.08-.036-1.616-.05 1.304 3.238 2.61 6.49 3.91 9.75-1.745-.076-3.49-.136-5.234-.175-1.304-3.23-2.61-6.452-3.913-9.663-.388-.003-.78-.003-1.166-.003v9.608c-1.642-.003-3.288.017-4.933.046V22.526zm-26.72 6.23c.757-1.486 1.52-2.972 2.277-4.452 3.53-.444 7.072-.808 10.614-1.09.762 1.325 1.527 2.656 2.292 3.99V42.96c-.765 1.44-1.526 2.884-2.29 4.33-3.547.28-7.086.646-10.615 1.09-.76-1.292-1.52-2.577-2.278-3.858V28.757zm-24.17.424c1.61-.39 3.22-.768 4.835-1.13v19.216c2.625-.583 5.26-1.122 7.9-1.612v4.857a236.35 236.35 0 0 0-12.734 2.742V29.18zm-23.7 7.145c4.125-1.483 8.28-2.85 12.46-4.095v4.857c-2.588.77-5.167 1.59-7.736 2.453v4.75c1.834-.615 3.678-1.21 5.522-1.78v4.857a225.89 225.89 0 0 0-5.522 1.78v9.61c-1.58.53-3.152 1.078-4.724 1.64V36.326zm153.974 3.215c-1.725-.58-3.453-1.14-5.185-1.675v4.75c1.734.537 3.462 1.097 5.184 1.676v-4.75zM87.352 28.296c-1.79.162-3.576.348-5.363.55V43.2a237.9 237.9 0 0 1 5.362-.55V28.297z" fill="#CE1126"/><path d="M65.654 45.658c-2.642.493-5.274 1.03-7.9 1.612V28.055c-1.61.358-3.224.735-4.833 1.13v24.074a233.562 233.562 0 0 1 12.734-2.742v-4.86zm43.09-8.717c.386 0 .777 0 1.164.004 1.304 3.21 2.61 6.433 3.913 9.664 1.746.04 3.49.1 5.235.175-1.3-3.26-2.606-6.512-3.91-9.75.54.013 1.08.033 1.616.05l2.295-4.07v-6.15c-.76-1.417-1.526-2.834-2.29-4.244a234.154 234.154 0 0 0-12.956-.097v24.072c1.644-.033 3.287-.05 4.932-.046v-9.61zm0-9.607c1.793.003 3.588.023 5.382.066v4.75c-1.794-.043-3.59-.066-5.383-.066v-4.75zM33.94 49.147c1.835-.616 3.68-1.212 5.523-1.78v-4.858c-1.847.568-3.688 1.16-5.522 1.78v-4.75c2.57-.864 5.15-1.682 7.738-2.453V32.23a235.445 235.445 0 0 0-12.46 4.095v24.072a221.57 221.57 0 0 1 4.723-1.642v-9.608zm144.07-1.675c1.734.54 3.462 1.096 5.184 1.675v9.608c1.58.53 3.152 1.08 4.72 1.642V40.483c-.73-1.65-1.46-3.294-2.194-4.936a239.808 239.808 0 0 0-10.263-3.317c-.738 1.165-1.48 2.334-2.22 3.506v19.917c1.595.457 3.184.934 4.773 1.424v-9.605zm0-9.608c1.734.536 3.462 1.096 5.184 1.675v4.75c-1.725-.58-3.453-1.14-5.185-1.675v-4.75zm-88.03 9.423c.762-1.447 1.527-2.89 2.292-4.33V27.2c-.765-1.333-1.526-2.66-2.29-3.988-3.547.28-7.086.646-10.615 1.09-.76 1.48-1.52 2.962-2.278 4.452v15.762c.757 1.28 1.52 2.57 2.277 3.857 3.533-.44 7.072-.805 10.614-1.086zM81.993 28.85c1.784-.206 3.572-.388 5.363-.55v14.354c-1.79.162-3.576.344-5.363.55V28.85zm53.5-4.82c-1.634-.19-3.27-.362-4.91-.517v24.075c1.64.156 3.275.328 4.91.516V24.03zm26.48 24.528V32.802c-.748-1.563-1.5-3.12-2.25-4.675a234.505 234.505 0 0 0-12.767-2.486v24.073c4.27.708 8.528 1.54 12.766 2.486.752-1.215 1.5-2.43 2.252-3.642zm-4.84-1.778a230.217 230.217 0 0 0-5.304-1.06V31.366c1.77.334 3.54.685 5.304 1.06V46.78zM48.038 144.912s2.87-4.54 5.055-6.62l-3.066-8.63c-1.152-1.075-2.165-2.144-3.092-3.35a40.25 40.25 0 0 1-2.195-3.157l-3.033 7.913c-.002 0 2.795 7.805 6.33 13.844zm4.122 4.56s1.768 6.11 7.068 10.308c0 0 7.952-3.314 19.44-4.413 0 0-14.73-6.04-24.3-12.812.003 0-2.06 2.645-2.208 6.916zm42.784-41.312s-5.082.987-11.392 1.016c-2.867.013-5.99-.17-9.005-.735l6.48 3.03c4.677.222 10.16.15 15.794-1.18 2.69-2.502 6.887-7.067 9.095-10.898 0 0 .073-1.03 0-2.357-.106.12-.477.566-1.066 1.242-.445.51-1.007 1.15-1.676 1.88-2.003 2.2-4.93 5.22-8.23 8.003zm-20.397.282zm1.768 38.235s.53-.834 1.245-2.22c-2.807-2.607-5.883-4.517-5.883-4.517a33.738 33.738 0 0 1 7.618.682c.212-.543.42-1.112.62-1.702-3.34-2.665-7.38-4.56-7.38-4.56 3.7-.542 7.326-.27 8.597-.145.09-.52.162-1.05.222-1.58-3.99-2.727-9.793-4.333-9.793-4.333a34.143 34.143 0 0 1 6.563-1.407l-2.92-3.423s-3.278-.15-6.81.13c-4.56.304-8.737.903-8.737.903-.695.523-1.75 1.36-2.53 1.97-1.416 1.268-1.926 1.967-2.833 3.112l.142 8.416c2.71 1.264 13.338 6.128 21.88 8.674z" fill="#FFF"/><path d="M125.727 103.704c-5.006-3.976-8.25-5.055-8.25-5.055s.3 5.69-.142 7.494c-4.867 6.678-10.67 12.938-10.67 12.938l17.404-7.98c1.008-3.713 1.657-7.398 1.657-7.398z" fill="#002654"/><path d="M121.38 170.825s1.546 3.645 2.54 8.836c.85 4.45.44 7.182.44 7.182-14.138-16.2-34.647-26.17-34.647-26.17s28.422 23.415 21.943 53.75c-.44 5.01-3.09 10.575-3.09 10.575a183.018 183.018 0 0 0 14.634-8.472 170.222 170.222 0 0 0 20.924-15.825c-7.97-17.87-22.744-29.875-22.744-29.875zM84.972 99.417c7.74-3.486 13.388-5.026 16.848-5.704.768-.152 1.43-.258 1.98-.338.275-.04.523-.07.745-.096.884-.104 1.33-.104 1.33-.104-10.275-1.814-22.46 3.052-22.46 3.052l.888 1.82.67 1.37zm56.083 131.613v4.824h-1.205v-4.824h-1.397v-1.198h4v1.198h-1.398zm6.54 4.823v-3.556l-1.017 2.215h-1.066l-1.016-2.215v3.556h-1.205v-6.022h1.206l1.55 3.216 1.548-3.215h1.205v6.023h-1.206z" fill="#FFF"/></svg>