<svg xmlns="http://www.w3.org/2000/svg" viewBox="0 0 198.249 237.474"><title>Ottawa Senators light logo</title><path d="M144.78 84.588l-24.05-32.863-8.738 4.046c-1.324-.42-3.58-1.082-6.738-1.73l1.97-1.984V35.104h-2.226C108.112 27.36 100.38 12.98 126.01 0H65.337C22.922 13.326 35.03 90.74 35.03 90.74l4.572-1.73s-1.745 5.49-.647 10.678c0 0-4.407 10.604.677 20.98l-3.068 4.333.782 22.893c-7.986 6.98-22.696 1.67-25.614 14.198-2.36 3.16-10.122 5.61-10.122 5.61-14.018 36.745 67.682 41.03 82.948 61.456 0 0 14.59 8.317 35.195 8.317 43.287 0 78.496-35.21 78.496-78.51.014-33.87-21.433-63.606-53.47-74.375z" fill="#FFF"/><path d="M142.765 87.295L119.693 55.77l-7.49 3.474s-4.993-1.91-13.612-3.053l5.416-5.46V38.34h-3.82c6.663-10.814-3.85-22.034 15.37-35.104H65.88c-37.51 12.65-28.17 83.053-28.17 83.053l7.188-2.722s-4.482 9.4-2.587 16.47c0 0-4.934 10.708 1.067 20.935l-3.55 4.993.767 22.922c-5.008 8.723-23.944 3.986-25.69 13.777-.736 4.136-10.738 7.595-10.738 7.595-10.498 31.27 69.427 37.15 82.572 56.402a75.232 75.232 0 0 0 33.03 7.61c41.586 0 75.277-33.707 75.277-75.294 0-33.553-21.958-61.965-52.28-71.68z"/><path d="M69.292 35.014L65.607 11.16C39.24 22.41 42.76 76.406 42.76 76.406l26.803-38.91H94.29c4.272-8.468-.948-21.96 8.513-27.75H70.18l-.888 25.268zm-8.167 161.61c10.8 2.406 25.238 11.566 25.238 11.566-1.053-3.82-4.136-7.49-4.136-7.49-18.154-5.73-29.028-17.026-29.028-17.026L25.54 168.47s16.484.09 15.01-12.11c-7.144 5.25-20.86 3.205-20.86 8.86 0 6.212 10.888 12.53 32.306 26.125l-33.134-15.19 1.985-2.167-2.286-4.437c-.24 1.7-8.647 1.73-8.647 7.4 0 19.99 70.735 27.45 83.715 46.356 1.534-9.82-17.808-19.177-32.503-26.682zm86.242-36.458s7.144 6.152 7.144 8.272c0 2.136-14.964 10.965-14.964 10.965 5.024-6.934 9.084-10.288 9.084-13.28 0-2.964-5.31-3.776-6.738-9.446-5.415 8.723-5.685 14.334-5.685 14.334l2.662 18.26-7.25-.887c-15.192 15.176-13.507 31.84-13.507 31.84 9.55-27.628 41.858-28.02 41.858-54.115-2.435-1.926-12.603-5.942-12.603-5.942z" fill="#CE1126"/><g fill="#FFF"><path d="M117.873 161.084l4.542-2.196-4.948-19.282 1.985-5.926 13.612-5.234 3.956 1.685-.54-6.196s-3.896-3.745-8.424-3.745c-4.407 0-6.167 3.158-12.198 10.467 0 0-3.474-9.115-17.627-9.115-11.97 0-26.335 5.58-26.335 5.58-2.527 3.444-2.196 10.8 15.07 9.506l-2.45 11.34 9.565 1.37s-12.183 26.877-5.49 33.345c6.347 6.106 12.875 12.68 15.13 12.68 8.905 0 14.515-2.317 15.613-3.43.496-.496.842-1.594.842-2.993 0-4.978-4.933-5.535-8.83-5.535-8.392 0-11.415 2.933-11.415 2.933l1.594-5.43c1.053-3.97 17.988-1.88 17.988-1.88l-.39-5.264-3.37.51-7.114-1.097-16.77.45-.827-.616 20.005-3.534 4.362.887 3.76-.933-2.046-1.82-2.18.857-.42-4.437-11.928-2 9.4-3.264 5.88 2.318z"/><path d="M135.05 135.53l-3.79.722c-1.565 6.302-6.032 3.7-6.724 2.18l-1.79 6.53 2.993 9.805 2.496 5.384-4.302 3.61 3.34 3.776 1.157 2.722 4.86-15.988 3.91-6.407c.692-1.098-3.19-8.754-3.19-8.754l1.04-3.58zm-36.91 70.104l10.664 7.295 2.813-9.702-9.34-1.34-4.137 3.746zm83.19 10.453a4.442 4.442 0 0 0-4.453 4.452 4.45 4.45 0 0 0 4.452 4.45c2.45 0 4.45-2 4.45-4.45 0-2.468-2-4.453-4.45-4.453zm0 7.94c-1.94 0-3.49-1.563-3.49-3.488s1.564-3.49 3.49-3.49a3.49 3.49 0 0 1-.002 6.978z"/><path d="M183.15 219.5c0-.84-.678-1.518-1.52-1.518h-2.136v5.084h.933v-2.046h.692l.962 2.06h1.038l-.993-2.15c.616-.226 1.022-.782 1.022-1.43zm-1.52.557h-1.188v-1.113h1.188c.316 0 .557.256.557.556a.546.546 0 0 1-.557.557z"/></g><g fill="#BF910C"><path d="M138.734 119.076l-21.643-12.393-43.286 14.74s16.033-4.166 27.84-4.166c12.845 0 15.086 6.92 15.086 6.92s3.97-7.16 9.957-7.16c7.22 0 12.243 4.21 12.243 4.21l-.196-2.15zM92.35 56.626l3.624-3.85h-18.8L61.47 65.442l13.9-16.289h22.816V42.49h-24.8L51.198 72.554l1.052 5.174s12.23-21.102 40.1-21.102z"/><path d="M77.805 169.822c0-14.59 3.55-29.72 3.55-29.72s-21.673 1.504-17.823-16.785c0 0-4.723 3.85-9.01 2.18 0 0 8.138-2.165 8.138-11.04l2.12 6.468 56.267-22.47 22.155 19.252-.496-8.663c-2.482.902-7.806-2.767-7.806-2.767l.812-.677s3.595 1.85 6.813.526l-.496-8.543-24.367-33.886-5.535 2.076s-11.927-5.04-23.493-5.04c-17.673 0-39.677 17.478-39.677 36.79l11.837.872 32.322-23.99-32.487 31.78s-2.873-5.61-7.01-5.61c-2.842 0-7.233 3.4-7.233 11.733 0 6.558 3.22 9.76 3.22 9.76l-3.79 5.13c2.78 41.06-1.866 45.257-10.304 42.926l16.484 7.956c0-28.757-1.068-37.496 1.745-37.496 4.632 0 4.15 28.592 5.37 42.038 0 0 11.896 13.792 35.54 16.048.014-.015-16.847-10.724-16.847-28.848zm53.56 6.197l-2.768 7.354 4.287.707-1.52-8.06zm18.62-78.693v24.396c10.843 8.814 17.777 22.245 17.777 37.255 0 20.8-13.28 38.534-31.81 45.197-7.837 12.8-5.656 20.335-4.68 22.516 32.398-5.474 57.17-33.75 57.17-67.71 0-27.03-15.7-50.448-38.458-61.653z"/></g><path d="M93.282 104.32l-1.67-1.037c-11.355 2.136-9.414-1.745-12.182-1.745 1.083-1.068.09-3.174 2.978-6.06l-.256-.347c-7.04 4.182-2.948 6.754-7.79 9.28l.18.407c5.79-1.955 3.67 5.1 18.74-.496z"/><path d="M100.802 97.056l-.917-.376c-8.197 3.835-8.167.105-9.806.617.84-1.414-1.61-3.128 3.925-8.453l-.075-.526c-9.61 6.392-5.024 8.89-8.047 11.927l.286.376c3.277-2.09 3.517 3.836 14.632-3.564zm-22.26 12.41s-1.008-.934-2.18-1.4c-6.438.662-5.49-1.88-7.717-1.775 1.985-1.533-.135-2.766 1.43-4.316l-.272-.33c-5.776 3.248-2.286 5.323-5.655 6.707l.165.407c3.25-.977 2.86 4.302 14.23.708zm-20.876-3.19c3.354 8.363-2.647 14.213-5.07 14.213-2.42 0-3.91-3.04-3.91-3.04s1.82 5.957 5.505 5.957 10.665-8.814 3.476-17.13z"/><path d="M107.826 89.762l-.617-.196c-6.378 3.4-6.8.797-7.762 1.068.677-1.384-2.196-1.745 1.925-7.04l-.165-.962c-8.98 7.956-2.542 8.212-6.422 11.46l.42.166c3.46-2.827 2.8 2.994 12.62-4.496zm-34.88-21.75C51.11 78.843 51.907 93.99 51.907 93.99l7.143.33 13.46-8.798c-9.58 2.632-25.01 1.46.437-17.507zm49.89 23.194c-11.717 3.22-12.664-13.943-9.37-17.522-12.92 8.287 2.933 27.884 9.37 17.522zm7.31 7.94l-.647.362c6.827 7.355 6.857 2.24 9.25 4.347l.315-.54c-1.94-2.98.797-5.7-5.445-12.184l-.03.648c3.49 4.572 1.91 7.024 2.948 8.92-1.654-.77-1.97 2.284-6.392-1.55z"/><path d="M132.372 97.056l.286-.36c-1.985-3.4 1.895-4.152-3.444-11.808l-.226.993c2.406 5.055.346 6.122.902 7.28-.902-.24-1.73 1.55-4.708-1.97l-.51.18c4.737 7.642 5.79 2.904 7.7 5.686zm45.708 67.667c-.812 4.15-4.21.27-6.106 10.017 1.474.286 2.767-3.008 4.678-2.647 1.91.376 1.88 3.926 3.34 4.196 1.878-9.732-2.724-7.415-1.912-11.567z"/><circle cx="178.095" cy="158.978" r="3.565"/><path d="M150.03 204.34c.948 1.143 4.06-.556 5.294.933 1.233 1.504-1.038 4.21-.09 5.37 7.656-6.318 2.617-7.446 5.896-10.153-3.294 2.707-3.43-2.467-11.1 3.85zm22.786-20.5c-2.166 3.655-4.06-1.143-9.084 7.415 1.278.752 3.595-1.91 5.28-.933 1.684.978.465 4.302 1.744 5.07 5.038-8.56-.09-7.897 2.06-11.552z"/><path d="M157.445 198.4c1.128.962 3.895-1.25 5.354 0 1.488 1.262-.302 4.33.856 5.308 6.452-7.55 1.293-7.806 4.046-11.01-2.752 3.204-3.79-1.85-10.257 5.7zm14.243-56.087c2.076 9.716 5.384 5.776 6.287 9.927-.902-4.15 3.76-1.91 1.685-11.61-1.46.315-1.37 3.85-3.264 4.24-1.88.42-3.25-2.858-4.708-2.557zm-8.257-15.988c5.115 8.513 6.98 3.7 9.16 7.325-2.195-3.625 2.934-3.008-2.18-11.536-1.263.767-.045 4.076-1.7 5.084-1.655 1.007-4-1.64-5.28-.873z"/><path d="M168.23 133.98c3.64 9.236 6.286 4.8 7.835 8.755-1.564-3.956 3.4-2.497-.256-11.732-1.385.54-.708 4.03-2.513 4.723-1.79.72-3.67-2.287-5.068-1.745zm8.105 40.264c-1.49 3.986-4.196-.406-7.686 8.89 1.398.51 3.233-2.513 5.053-1.836 1.805.692 1.203 4.166 2.587 4.693 3.475-9.294-1.444-7.76.045-11.746zm-8.633-48.957c-2.752-3.22 2.406-3.444-4.046-11.01-1.128.963.632 4.046-.842 5.31-1.49 1.262-4.24-.964-5.37 0 6.468 7.535 7.506 2.482 10.258 5.7zm-7.836-9.07c2.36-3.097-9.205-7.053-9.205-7.053s6.83 10.152 9.206 7.054zm-19.056 93.07c.722 1.31 4.076.227 5.008 1.926.933 1.7-1.82 3.94-1.113 5.25 8.723-4.724 4-6.8 7.73-8.83-3.73 2.016-2.872-3.082-11.625 1.655z"/><path d="M131.68 216.372s12.228.256 11.07-3.46c-1.173-3.714-11.07 3.46-11.07 3.46zm-58.582-85.52l19.026 2.662c.632 3.19 5.58 6.197 9.024 1.37l5.204 1.488-4.18 3.28 8.016 1.097 3.143-6.183-18.108-7.355-22.124 3.64z"/></svg>